<mxfile host="Electron" modified="2023-05-01T02:38:06.276Z" agent="Mozilla/5.0 (Windows NT 10.0; Win64; x64) AppleWebKit/537.36 (KHTML, like Gecko) draw.io/21.2.1 Chrome/112.0.5615.87 Electron/24.1.2 Safari/537.36" etag="095PvkS2hCAA9CK2sxA3" version="21.2.1" type="device">
  <diagram name="Page-1" id="l4fz022ujwAryqne1b17">
    <mxGraphModel dx="255" dy="274" grid="1" gridSize="10" guides="1" tooltips="1" connect="1" arrows="1" fold="1" page="1" pageScale="1" pageWidth="3300" pageHeight="4681" math="0" shadow="0">
      <root>
        <mxCell id="0" />
        <mxCell id="1" parent="0" />
        <mxCell id="uniE95keQ5X73r_aGtMK-1" value="Downscale step&lt;br&gt;Parameters: filters \(f\)" style="rounded=1;whiteSpace=wrap;html=1;verticalAlign=top;fillColor=#e1d5e7;strokeColor=#9673a6;" vertex="1" parent="1">
          <mxGeometry x="250" y="20" width="160" height="150" as="geometry" />
        </mxCell>
        <mxCell id="uniE95keQ5X73r_aGtMK-2" style="edgeStyle=orthogonalEdgeStyle;rounded=0;orthogonalLoop=1;jettySize=auto;html=1;" edge="1" parent="1" source="uniE95keQ5X73r_aGtMK-4" target="uniE95keQ5X73r_aGtMK-6">
          <mxGeometry relative="1" as="geometry" />
        </mxCell>
        <mxCell id="uniE95keQ5X73r_aGtMK-3" style="edgeStyle=orthogonalEdgeStyle;rounded=0;orthogonalLoop=1;jettySize=auto;html=1;" edge="1" parent="1" target="uniE95keQ5X73r_aGtMK-4">
          <mxGeometry relative="1" as="geometry">
            <mxPoint x="250" y="110" as="sourcePoint" />
          </mxGeometry>
        </mxCell>
        <mxCell id="uniE95keQ5X73r_aGtMK-4" value="Downscaling residual block&lt;br&gt;\(f\)&amp;nbsp;filters" style="rounded=1;whiteSpace=wrap;html=1;horizontal=0;fillColor=#fff2cc;strokeColor=#d6b656;" vertex="1" parent="1">
          <mxGeometry x="260" y="60" width="60" height="100" as="geometry" />
        </mxCell>
        <mxCell id="uniE95keQ5X73r_aGtMK-5" style="edgeStyle=orthogonalEdgeStyle;rounded=0;orthogonalLoop=1;jettySize=auto;html=1;" edge="1" parent="1" source="uniE95keQ5X73r_aGtMK-6" target="uniE95keQ5X73r_aGtMK-8">
          <mxGeometry relative="1" as="geometry" />
        </mxCell>
        <mxCell id="uniE95keQ5X73r_aGtMK-6" value="Residual block&lt;br&gt;\(f\) filters" style="rounded=1;whiteSpace=wrap;html=1;horizontal=0;fillColor=#d5e8d4;strokeColor=#82b366;" vertex="1" parent="1">
          <mxGeometry x="330" y="60" width="30" height="100" as="geometry" />
        </mxCell>
        <mxCell id="uniE95keQ5X73r_aGtMK-7" style="edgeStyle=orthogonalEdgeStyle;rounded=0;orthogonalLoop=1;jettySize=auto;html=1;" edge="1" parent="1" source="uniE95keQ5X73r_aGtMK-8">
          <mxGeometry relative="1" as="geometry">
            <mxPoint x="420" y="110" as="targetPoint" />
          </mxGeometry>
        </mxCell>
        <mxCell id="uniE95keQ5X73r_aGtMK-8" value="Residual block&lt;br&gt;\(f\) filters" style="rounded=1;whiteSpace=wrap;html=1;horizontal=0;fillColor=#d5e8d4;strokeColor=#82b366;" vertex="1" parent="1">
          <mxGeometry x="370" y="60" width="30" height="100" as="geometry" />
        </mxCell>
        <mxCell id="uniE95keQ5X73r_aGtMK-9" value="Upscale step&lt;br&gt;Parameters: filters \(f\)" style="rounded=1;whiteSpace=wrap;html=1;verticalAlign=top;fillColor=#e1d5e7;strokeColor=#9673a6;" vertex="1" parent="1">
          <mxGeometry x="440" y="20" width="200" height="150" as="geometry" />
        </mxCell>
        <mxCell id="uniE95keQ5X73r_aGtMK-10" style="edgeStyle=orthogonalEdgeStyle;rounded=0;orthogonalLoop=1;jettySize=auto;html=1;" edge="1" parent="1" source="uniE95keQ5X73r_aGtMK-13" target="uniE95keQ5X73r_aGtMK-15">
          <mxGeometry relative="1" as="geometry" />
        </mxCell>
        <mxCell id="uniE95keQ5X73r_aGtMK-11" style="edgeStyle=orthogonalEdgeStyle;rounded=0;orthogonalLoop=1;jettySize=auto;html=1;" edge="1" parent="1" target="uniE95keQ5X73r_aGtMK-13">
          <mxGeometry relative="1" as="geometry">
            <mxPoint x="440" y="110" as="sourcePoint" />
          </mxGeometry>
        </mxCell>
        <mxCell id="uniE95keQ5X73r_aGtMK-12" value="" style="endArrow=classic;html=1;rounded=0;entryX=0;entryY=0.4;entryDx=0;entryDy=0;entryPerimeter=0;fillColor=#60a917;strokeColor=#2D7600;" edge="1" parent="1" target="uniE95keQ5X73r_aGtMK-15">
          <mxGeometry width="50" height="50" relative="1" as="geometry">
            <mxPoint x="430" y="100" as="sourcePoint" />
            <mxPoint x="480" y="50" as="targetPoint" />
          </mxGeometry>
        </mxCell>
        <mxCell id="uniE95keQ5X73r_aGtMK-13" value="Upscaling residual block&lt;br&gt;\(f\)&amp;nbsp;filters" style="rounded=1;whiteSpace=wrap;html=1;horizontal=0;fillColor=#fff2cc;strokeColor=#d6b656;" vertex="1" parent="1">
          <mxGeometry x="450" y="60" width="60" height="100" as="geometry" />
        </mxCell>
        <mxCell id="uniE95keQ5X73r_aGtMK-14" style="edgeStyle=orthogonalEdgeStyle;rounded=0;orthogonalLoop=1;jettySize=auto;html=1;" edge="1" parent="1" source="uniE95keQ5X73r_aGtMK-15" target="uniE95keQ5X73r_aGtMK-17">
          <mxGeometry relative="1" as="geometry" />
        </mxCell>
        <mxCell id="uniE95keQ5X73r_aGtMK-15" value="Concatenate" style="rounded=1;whiteSpace=wrap;html=1;horizontal=0;fillColor=#fff2cc;strokeColor=#d6b656;" vertex="1" parent="1">
          <mxGeometry x="520" y="60" width="30" height="100" as="geometry" />
        </mxCell>
        <mxCell id="uniE95keQ5X73r_aGtMK-16" style="edgeStyle=orthogonalEdgeStyle;rounded=0;orthogonalLoop=1;jettySize=auto;html=1;" edge="1" parent="1" source="uniE95keQ5X73r_aGtMK-17" target="uniE95keQ5X73r_aGtMK-19">
          <mxGeometry relative="1" as="geometry" />
        </mxCell>
        <mxCell id="uniE95keQ5X73r_aGtMK-17" value="Residual block&lt;br&gt;\(f\) filters" style="rounded=1;whiteSpace=wrap;html=1;horizontal=0;fillColor=#d5e8d4;strokeColor=#82b366;" vertex="1" parent="1">
          <mxGeometry x="560" y="60" width="30" height="100" as="geometry" />
        </mxCell>
        <mxCell id="uniE95keQ5X73r_aGtMK-18" style="edgeStyle=orthogonalEdgeStyle;rounded=0;orthogonalLoop=1;jettySize=auto;html=1;" edge="1" parent="1" source="uniE95keQ5X73r_aGtMK-19">
          <mxGeometry relative="1" as="geometry">
            <mxPoint x="650" y="110" as="targetPoint" />
          </mxGeometry>
        </mxCell>
        <mxCell id="uniE95keQ5X73r_aGtMK-19" value="Residual block&lt;br&gt;\(f\) filters" style="rounded=1;whiteSpace=wrap;html=1;horizontal=0;fillColor=#d5e8d4;strokeColor=#82b366;" vertex="1" parent="1">
          <mxGeometry x="600" y="60" width="30" height="100" as="geometry" />
        </mxCell>
      </root>
    </mxGraphModel>
  </diagram>
</mxfile>
